<svg xmlns="http://www.w3.org/2000/svg" viewBox="0 0 867.32 867.32"><defs><style>.cls-1{fill:#fff;}</style></defs><title>Asset 1</title><g id="Layer_2" data-name="Layer 2"><g id="Layer_1-2" data-name="Layer 1"><path class="cls-1" d="M433.66,0C194.16,0,0,194.16,0,433.66S194.16,867.32,433.66,867.32,867.32,673.16,867.32,433.66,673.16,0,433.66,0ZM674.55,319.63l.38,14.84c0,151.48-115.27,326.14-326.14,326.14A324,324,0,0,1,173.08,609a243.61,243.61,0,0,0,27.34,1.57,230,230,0,0,0,142.36-49A114.69,114.69,0,0,1,235.73,482a110,110,0,0,0,21.58,2.13,116.11,116.11,0,0,0,30.2-4,114.75,114.75,0,0,1-91.94-112.4v-1.43a114.64,114.64,0,0,0,51.92,14.39,114.77,114.77,0,0,1-35.48-153A325.45,325.45,0,0,0,448.28,347.43,114.69,114.69,0,0,1,643.61,242.92a231.1,231.1,0,0,0,72.84-27.83,115.11,115.11,0,0,1-50.39,63.38,228.92,228.92,0,0,0,65.82-18.05A228.91,228.91,0,0,1,674.55,319.63Z"/></g></g></svg>