<svg xmlns="http://www.w3.org/2000/svg" viewBox="0 0 867.32 867.37"><defs><style>.cls-1{fill:#fff;}</style></defs><title>Asset 2</title><g id="Layer_2" data-name="Layer 2"><g id="Layer_1-2" data-name="Layer 1"><g id="svg_1" data-name="svg 1"><path id="svg_2" data-name="svg 2" class="cls-1" d="M407.58.8a434.55,434.55,0,0,0-161.8,42C123.68,101.6,35.58,214.7,8.68,347.2a434.42,434.42,0,0,0,34.4,275c58.9,121.9,171.8,209.7,304.1,236.5A433.7,433.7,0,1,0,407.58.8Zm176.9,236.1-.3,47.3-46,.5c-52,.6-48.8,0-54.4,8.8-5.7,9.1-6.1,12.2-6.1,49.4v33.8h107v89h-107v266h-103v-266h-92v-89h92V344.6c0-34.9,1-45.7,5.6-61.6,12.6-43.4,46.2-78.3,85.7-88.8,14.4-3.9,20.6-4.2,71.5-4.4l47.2-.1Z"/></g></g></g></svg>