<svg xmlns="http://www.w3.org/2000/svg" viewBox="0 0 867.32 867.32"><defs><style>.cls-1{fill:#fff;}</style></defs><title>Asset 3</title><g id="Layer_2" data-name="Layer 2"><g id="Layer_1-2" data-name="Layer 1"><polygon class="cls-1" points="380.58 441.36 308.53 369.31 236.48 297.27 236.48 441.36 236.48 585.46 308.53 513.41 380.58 441.36"/><path class="cls-1" d="M579.27,370.26l-70.58,71.29,71.51,71.53c39.33,39.34,71.71,71.53,71.95,71.53s.43-64.53.43-143.39S652,298.09,651.22,298.4,618.09,331,579.27,370.26Z"/><path class="cls-1" d="M499.13,450.77l-20.05,19.85c-20.72,20.52-27.57,25.35-35.74,25.25-7-.09-10-2.25-33-24.15l-21-20L318,521.82c-39.23,38.53-71.34,70.72-71.34,71.54s86.57,1.49,198.25,1.49H643.2l-72-72Z"/><path class="cls-1" d="M433.66,0C194.16,0,0,194.16,0,433.66S194.16,867.32,433.66,867.32,867.32,673.16,867.32,433.66,673.16,0,433.66,0ZM664.11,440.94l-.43,165-219.57.43-219.57.43V275.94h440Z"/><path class="cls-1" d="M345.2,288.29l-99.33.44,97.2,97.69c77.36,77.75,98.07,97.68,101.46,97.64s25-21,100.8-97.69l96.54-97.64-98.67-.44C488.93,288.05,399.83,288.05,345.2,288.29Z"/></g></g></svg>