<?xml version="1.0" encoding="utf-8"?>
<!-- Generator: Adobe Illustrator 22.0.0, SVG Export Plug-In . SVG Version: 6.00 Build 0)  -->
<svg version="1.1" id="Layer_1" xmlns="http://www.w3.org/2000/svg" xmlns:xlink="http://www.w3.org/1999/xlink" x="0px" y="0px"
	 viewBox="0 0 496.2 496.2" style="enable-background:new 0 0 496.2 496.2;" xml:space="preserve">
<style type="text/css">
	.st0{fill:#4777BB;}
	.st1{fill:#FFFFFF;}
</style>
<path class="st0" d="M248.1,0C111.1,0,0,111.1,0,248.1c0,137,111.1,248.1,248.1,248.1c137,0,248.1-111.1,248.1-248.1
	C496.2,111.1,385.1,0,248.1,0z"/>
<path class="st1" d="M325,279.9c-4.5-2.1-10.6-3.1-18.1-3.1h-6.3V163.4c0-17-7.4-25.5-22.3-25.5c-4.6,0-8.5,1.5-11.8,4.6
	c-3.3,3.1-7.4,8-12.5,14.9l-77.6,103.9c-2.1,2.8-4,5.2-5.4,7.2c-1.5,2-2.9,4-4.2,6.1c-1.4,2.1-2.4,4.1-3.1,6c-0.7,1.9-1,3.8-1,5.6
	c0,7.2,2.3,12.9,7,17.1c4.6,4.2,11.6,6.3,20.9,6.3H264v27.2c0,7.3,1.7,12.9,5.1,16.6s7.8,5.6,13.3,5.6c5.6,0,10-1.8,13.3-5.5
	c3.3-3.7,5-9.3,5-16.8v-27.2h8.9c7.4,0,13-1.3,16.7-3.9c3.7-2.6,5.6-6.7,5.6-12.4C331.8,286.4,329.5,281.9,325,279.9z M264,276.8
	h-63l63-85.1V276.8z"/>
</svg>
