<?xml version="1.0" encoding="utf-8"?>
<!-- Generator: Adobe Illustrator 22.0.0, SVG Export Plug-In . SVG Version: 6.00 Build 0)  -->
<svg version="1.1" id="Layer_1" xmlns="http://www.w3.org/2000/svg" xmlns:xlink="http://www.w3.org/1999/xlink" x="0px" y="0px"
	 viewBox="0 0 496.2 496.2" style="enable-background:new 0 0 496.2 496.2;" xml:space="preserve">
<style type="text/css">
	.st0{fill:#4777BB;}
	.st1{fill:#FFFFFF;}
</style>
<path class="st0" d="M248.1,0C111.1,0,0,111.1,0,248.1c0,137,111.1,248.1,248.1,248.1c137,0,248.1-111.1,248.1-248.1
	C496.2,111.1,385.1,0,248.1,0z"/>
<path class="st1" d="M321.2,258.7c-3.2-8.7-7.8-16.2-13.7-22.6c-5.9-6.4-12.8-11.3-20.7-14.8c-7.9-3.5-16.4-5.2-25.7-5.2
	c-9.7,0-18.4,1.9-26.2,5.7c-7.8,3.8-15,9.7-21.7,17.6c1.3-26.6,5.5-45,12.6-55.4c3.5-5.1,7.8-9.1,13-12.1c5.1-3,10.3-4.5,15.5-4.5
	c6.4,0,12.1,1.8,17,5.3c4.9,3.6,8.4,8.3,10.7,14.1c1.7,4.6,4.2,8.2,7.8,10.8c3.5,2.6,7.3,3.9,11.4,3.9c4.7,0,8.5-1.6,11.6-4.9
	c3-3.3,4.5-6.9,4.5-10.9c0-6.6-2.4-13.6-7.3-20.8c-4.8-7.2-12-13.3-21.5-18.2c-9.5-4.9-20.5-7.3-33-7.3c-13,0-24.6,2.4-34.7,7.3
	c-10.2,4.9-18.8,12.1-25.9,21.7c-7.1,9.6-12.6,21.6-16.4,36.2c-3.8,14.6-5.7,31.1-5.7,49.5c0,22.7,3.1,41.8,9.4,57.5
	s15.4,27.5,27.3,35.5c11.9,8,26.1,12,42.5,12c14.3,0,27-3.1,38.3-9.4s20.1-15.1,26.4-26.3c6.3-11.2,9.4-23.7,9.4-37.5
	C326.1,276.4,324.5,267.3,321.2,258.7z M277.3,318.2c-6.4,8.1-14.6,12.1-24.5,12.1c-10.4,0-18.9-4.4-25.8-13.2
	c-6.8-8.8-10.3-19.8-10.3-33c0-8.2,1.7-15.4,5.1-21.5c3.4-6.1,7.8-10.8,13.3-14c5.5-3.2,11.3-4.8,17.4-4.8c6.3,0,12.2,1.7,17.4,5.1
	s9.4,8.3,12.5,14.6c3,6.4,4.5,14,4.5,22.9C287,299.6,283.7,310.1,277.3,318.2z"/>
</svg>
