<svg id="Layer_1" data-name="Layer 1" xmlns="http://www.w3.org/2000/svg" viewBox="0 0 200 200"><defs><style>.cls-1{fill:none;}.cls-2{fill:#1da1f2;}</style></defs><title>Artboard 1</title><rect class="cls-1" width="200" height="200"/><path class="cls-2" d="M76.81,150.79c47.17,0,73-39.08,73-73,0-1.11,0-2.22-.07-3.32A52.18,52.18,0,0,0,162.5,61.23a51.19,51.19,0,0,1-14.73,4A25.73,25.73,0,0,0,159,51.08a51.39,51.39,0,0,1-16.28,6.22A25.67,25.67,0,0,0,99.06,80.7,72.81,72.81,0,0,1,46.2,53.9a25.67,25.67,0,0,0,7.94,34.24,25.46,25.46,0,0,1-11.62-3.21c0,.11,0,.21,0,.33A25.66,25.66,0,0,0,63.09,110.4a25.61,25.61,0,0,1-11.58.44,25.67,25.67,0,0,0,24,17.81,51.46,51.46,0,0,1-31.85,11,52.21,52.21,0,0,1-6.12-.36,72.6,72.6,0,0,0,39.31,11.52"/></svg>