<?xml version="1.0" encoding="utf-8"?>
<!-- Generator: Adobe Illustrator 23.0.2, SVG Export Plug-In . SVG Version: 6.00 Build 0)  -->
<svg version="1.1" id="Layer_1" xmlns="http://www.w3.org/2000/svg" xmlns:xlink="http://www.w3.org/1999/xlink" x="0px" y="0px"
	 viewBox="0 0 567.7 566.9" style="enable-background:new 0 0 567.7 566.9;" xml:space="preserve">
<title>Artboard 1</title>
<path d="M472.6,254.6c-4.4,0-7.9,3.5-7.9,7.9c0,111.6-90.5,202.1-202.1,202.1c-4.3-0.5-8.2,2.6-8.7,7c-0.5,4.3,2.6,8.2,7,8.7
	c0.6,0.1,1.2,0.1,1.8,0l0,0c120.3,0,217.8-97.5,217.8-217.9C480.3,258.1,476.9,254.7,472.6,254.6z"/>
<path d="M244.4,269.6l-21.3-21.3h0.1L203.3,228c-6.9-6.9-6.9-18,0-24.9s18-6.9,24.9,0l20.3,20l0,0l21.3,21.3l11.1-11.1l-41.4-41.4
	c-13.8-12.4-35-11.3-47.5,2.5c-11.5,12.8-11.5,32.1,0,44.9l41.4,41.4L244.4,269.6z"/>
<path d="M163.6,372.7l21.3,21.3h-0.1l19.9,20.3c6.9,6.9,6.9,18,0,24.9s-18,6.9-24.9,0l-20.3-19.9l0,0L138.2,398l-11,11l41.4,41.4
	c13.5,12.8,34.7,12.2,47.5-1.3c12.3-13,12.3-33.2,0-46.2l-41.4-41.4L163.6,372.7z"/>
<path d="M280.8,255.4l21.3,21.3H302l20,20.3c6.9,6.9,6.9,18,0,24.9s-18,6.9-24.9,0l-20.3-20l0,0l-21.3-21.3l-11.1,11.1l41.4,41.4
	c12.8,13.5,34,14.1,47.5,1.3c13.5-12.8,14.1-34,1.3-47.5c-0.4-0.4-0.8-0.9-1.3-1.3l-41.4-41.4L280.8,255.4z"/>
<path d="M56.5,327.2c-3,3.1-3,8,0,11.1l59.6,59.6l11.1-11.1l-59.5-59.6C64.6,324.1,59.6,324.1,56.5,327.2
	C56.5,327.2,56.5,327.2,56.5,327.2z"/>
<path d="M92.9,290.9c-3,3.1-3,8,0,11.1l59.6,59.6l11.1-11.1L104,290.9C100.9,287.9,96,287.9,92.9,290.9z"/>
<path d="M115.2,268.6c-3,3.1-3,8,0,11.1l59.6,59.6l11.1-11.1l-59.6-59.6C123.2,265.6,118.3,265.6,115.2,268.6z"/>
<path d="M432.4,234.1c3-3.1,3-8,0-11.1l-59.6-59.6l-11.1,11.1l59.6,59.6C424.4,237.1,429.3,237.1,432.4,234.1z"/>
<path d="M468.7,197.8c3-3.1,3-8,0-11.1l-59.6-59.6L398,138.2l59.6,59.6C460.7,200.8,465.6,200.8,468.7,197.8z"/>
<path d="M373.8,292.7c3-3.1,3-8,0-11.1L314.2,222l-11.1,11.1l59.6,59.6C365.8,295.7,370.7,295.7,373.8,292.7z"/>
<path d="M345.4,85.9l20.3,19.9l0,0l21.3,21.3l11.1-11.1l-41.4-41.4c-12.8-13.5-34-14.1-47.5-1.3s-14.1,34-1.3,47.5
	c0.4,0.4,0.8,0.9,1.3,1.3l30.2,30.2l0,0l11.1,11.1l11.1-11.1l0,0l12.6-12.6l-11.1-11.1l-12.6,12.6L340.3,131h0.1l-20-20.3
	c-6.9-6.9-6.9-18,0-24.9c6.9-6.9,18-6.9,24.9,0l0,0L345.4,85.9z"/>
<path d="M238.9,308.5l6.2,6.2l29.6,29.6c13.5,12.8,14.1,34,1.3,47.5c-12.8,13.5-34,14.1-47.5,1.3c-0.4-0.4-0.9-0.8-1.3-1.3
	l-41.4-41.4l11.2-11.1l21.3,21.3l0,0l20.3,19.9c6.9,6.9,18,6.9,24.9,0s6.9-18,0-24.9l-20-20.3h0.1l-10.2-10.2l-12.6,12.6l-11.1-11.1
	l18.2-18.2l0,0C231,305.5,235.9,305.5,238.9,308.5z"/>
<path d="M333.9,169l-15-15h-0.1l-20.7-20.7c-12.8-13.5-34-14.1-47.5-1.3c-13.5,12.8-14.1,34-1.3,47.5c0.4,0.4,0.8,0.9,1.3,1.3
	l20.7,20.7l20.7,20.7l5.6-5.6l5.6-5.6l-10.6-10.6L282,189.8h0.1l-10-10.1l-10-10.1c-6.9-6.9-6.9-18,0-24.9s18-6.9,24.9,0l10.1,10
	l10.1,10l0,0l0.7,0.7l0,0l8.2,8.2l1.7,1.7l0.6,0.6l0,0l4.4,4.4c3.1,3.1,8.1,3,11.2-0.1S337,172.1,333.9,169z"/>
<path d="M483.8,52.5l5.5-5.5c3.4-2.7,4-7.7,1.3-11.1c-2.7-3.4-7.7-4-11.1-1.3c-0.5,0.4-0.9,0.8-1.3,1.3l-36.4,36.3l-0.5-0.5
	l-1.6-1.5l-2.4-2.2l-2.9-2.5l-1.3-1.1c-5.9-5.1-12-9.9-18.4-14.4l-0.2-0.2l-1.2-0.8c-3.5-2.5-7.2-4.9-10.9-7.2l-2.2-1.4l-1.6-1
	c-4.9-3-9.9-5.8-15-8.5h-0.1l-0.7-0.3l-8.6-4.2H374l-4.7-2.4l-1.2-0.5l-4-1.7l-2.2-0.9l-3-1.2l-3.4-1.3l-2-0.7l-4.5-1.8l-1-0.3
	c-12.6-4.4-25.5-7.7-38.6-10.1l-2-0.4l-1.6-0.3l-3.6-0.6h-0.4l-6.6-0.9H295l-5.6-0.6h-1.3l-4.5-0.4L281.2,2l-3.3-0.2l-3.5-0.2h-27
	L245,1.8h-3.3l-3.5,0.3H236l-4.6,0.5h-1L220.8,4h-0.1L218,4.4L214.4,5H214l-4.6,0.9l-1.6,0.3l-2.7,0.6l-3.5,0.8l-0.7,0.2
	C155.5,19.2,114,42.5,80.7,75.3l-0.2,0.2l-3.9,3.8l-0.9,0.9l-3,3.2L71,85.2l-2.2,2.4l-2.4,2.7L65,91.9l-1.4,1.7l-1,1.1l-0.7,0.8
	l-0.7,0.8l-0.9,1.1L59,99l-1.8,2.2l-0.8,1.1v0.2l-0.4,0.6l-2.3,2.9l-0.6,0.8l-0.8,1l-1.7,2.3l-0.9,1.3l-1.4,1.9l-1,1.4l-0.4,0.6
	l-0.5,0.7l-2,3l-1.2,1.8l-1.1,1.8l-0.4,0.6l-1,1.6l-0.5,0.9c-5,8.2-9.6,16.6-13.7,25.3l-1,2.3l-1,2.1l-1.6,3.7l-0.2,0.4
	c-7.5,17.4-13.1,35.6-16.6,54.3L5.3,218c0,0.2,0,0.3,0,0.5c-0.3,1.7-0.5,3.5-0.8,5.2c-1.4,9.2-2.3,18.5-2.7,27.8v2.6
	c0,0.1,0,0.2,0,0.3c-0.3,7.9-0.2,15.7,0.3,23.4v1.4c0.1,1.3,0.2,2.7,0.3,4s0.2,2,0.3,3l0.2,2.4c0.1,1.5,0.3,3,0.5,4.4v1
	c2,17,5.7,33.7,11,50l0.7,2.3l0.2,0.4c3.9,11.6,8.7,22.9,14.2,33.8v0.3l2.2,4.3l0.5,1l1.9,3.5l1,1.8l1.6,2.7l1.5,2.5l1.2,2l2,3.2
	l0.8,1.2l2.5,3.9l0.3,0.5c8.1,12.2,17.2,23.7,27.2,34.4l-39,39l0,0l-3,3l-15.3-15.7c-3.1-3.1-8.1-3.1-11.2,0
	c-3.1,3.1-3.1,8.1,0,11.2c0,0,0,0,0,0l10.2,10.2l0,0l10.9,10.9l0,0l21.1,21.1c2.9,3.3,7.9,3.6,11.2,0.7c3.3-2.9,3.6-7.9,0.7-11.2
	c-0.2-0.2-0.5-0.5-0.7-0.7l-10.2-10.2l0,0l-5.3-5.3l1.8-1.8l0,0l5.5-5.5l3.8-3.8C174.7,599.8,367.7,595,483.8,472.9
	C595.8,355.1,595.8,170.3,483.8,52.5z M58.9,399.7l-2.5-3.9l-0.6-0.9l-2-3.1l-1.1-1.7l-1.4-2.4l-1.5-2.6l-0.9-1.6l-1.9-3.4l-0.4-0.8
	c-8.3-15.4-14.9-31.6-19.8-48.4c-8.3-28.7-11.2-58.6-8.8-88.4l0.3-3.4l0,0c0.2-1.5,0.3-3,0.5-4.5l0.3-2.6c0.3-1.9,0.5-3.7,0.8-5.6
	l0.2-1.7c0.9-5.3,1.9-10.5,3-15.8v-0.4c0.8-3.6,1.8-7.3,2.8-10.9l1-3.6l1.1-3l0.8-2.7l0.6-1.8l1.7-5l0.8-2.3l1.2-3.2l0,0l0.2-0.6
	c2.9-7.8,6.3-15.4,10-22.8c3.1-6.2,6.5-12.2,10-18l0.5-0.8l2.7-4.2l1.2-1.8l1.3-2c11.7-17.3,25.5-33.1,41.1-47l0.5-0.4l2-1.7
	c8.5-7.3,17.4-14,26.8-20.1l0.3-0.2l0.3-0.2l4-2.5l0.7-0.5l1.1-0.7l2.6-1.6l1.2-0.7l2.2-1.3l1-0.6l1.6-0.9l2.9-1.6l1.9-1l3.3-1.7
	l1.7-0.9l2.1-1l2.4-1.2l1.9-0.9l3.1-1.4l1.9-0.8l0.5-0.2l2.6-1.1l1.4-0.6l2.4-1l1.8-0.7l0.5-0.2l4.1-1.5l1.1-0.4l5.3-1.8l0,0
	c13.4-4.4,27.1-7.7,41.1-9.8l1.5-0.2l1.2-0.2l3.5-0.5l4.6-0.5l2.6-0.2l5.7-0.5h1.7c5.3-0.3,10.7-0.5,16-0.5h0.4
	c6.1,0,12.3,0.2,18.4,0.7h0.6l4,0.4l2.8,0.3l2.8,0.3c5.4,0.7,10.9,1.5,16.4,2.5s10.6,2.2,15.8,3.6l2,0.5l4.7,1.3l3.5,1l2.6,0.8
	l4.2,1.4l5.4,1.9l0.6,0.2l5.1,1.9h0.6l1.7,0.7l2.8,1.1l1.1,0.4l4.5,1.9h0.1l3.3,1.5l2.5,1.2l4,1.9c3.6,1.8,7.1,3.7,10.5,5.6l0.9,0.5
	l4.7,2.7l1.2,0.7c4.9,3,9.7,6.1,14.4,9.4l1.2,0.9l2.7,2l2.6,1.9l1,0.8c8,6.1,15.6,12.7,22.8,19.8l0.4,0.4l3.5,3.6l1.3,1.4l2.6,2.7
	l2.1,2.3l1.7,1.8l2.9,3.3l0,0l0.9,1l2.5,3l1.4,1.7l1.3,1.6l2.3,2.9l0.7,1c12,15.9,22,33.2,29.9,51.5l0.6,1.5l0.9,2.1l1.3,3.3v0.2
	c7.4,18.9,12.4,38.7,15,58.8l0.2,1.9l0.4,3.2c0.1,1.5,0.3,3.1,0.5,4.7v0.6c0.3,4.1,0.6,8.3,0.7,12.5c0.2,5.5,0.2,10.9,0,16.2
	c0,0.7-0.1,1.3-0.1,2s-0.2,3.3-0.3,4.9s-0.2,2.4-0.2,3.6s-0.2,1.8-0.2,2.8s-0.3,2.9-0.4,4.4c-0.4,4-0.9,7.9-1.6,11.8l-0.2,1
	c-0.3,1.8-0.6,3.6-0.9,5.4l-0.3,1.3c-0.3,1.8-0.7,3.5-1.1,5.3l-0.7,3.1l-0.4,2c-1.8,7.6-4,15.2-6.5,22.7c-1.3,3.9-2.7,7.7-4.2,11.4
	l-0.7,1.7l-1,2.5l-2.1,4.8l-0.2,0.4c-1.6,3.5-3.3,7.1-5,10.6c-7.2,14.4-15.9,28.1-25.8,40.9l-1.7,2.1l-2.4,2.9
	C408.1,472,342.9,505,273,508.3h-19.6l-3.6-0.2h-2l-4-0.3h-1.2l-5.4-0.5H236l-3.1-0.4h-0.6l-3.7-0.5h-0.1l-7.8-1.2
	c-33.2-5.9-64.9-18.6-93-37.2l-0.4-0.3l-4-2.7l-2.7-1.9l-1.5-1.1c-23.5-17-43.9-38-60.1-62.1L58.9,399.7z M467.2,467
	c-110.8,110.8-289.7,113.2-403.4,5.4l19.6-19.6c7.4,7.1,15.3,13.7,23.5,19.8l1,0.7l3.4,2.5l2.2,1.5l2.3,1.6l3.6,2.4l0.9,0.6
	c12.9,8.4,26.6,15.7,40.8,21.7h0.2l0.6,0.2c12.1,5.1,24.6,9.2,37.3,12.4l1.7,0.4l2.7,0.7l2.9,0.7l2.1,0.5l5,1h0.5l2.4,0.4l1.3,0.2
	l3.1,0.5l1.1,0.2l3.3,0.5h1l3.4,0.5h0.9l3.4,0.4h0.9l3.4,0.3h1l3.1,0.3h1.3l2.8,0.2h2.7l4.8,0.3h9.3c6.9,0,13.8-0.3,20.6-0.8h1.6
	l4.8-0.4h0.8c61.4-6.7,118.5-34.9,161.1-79.6l0.7-0.6l1-1.1l3.3-3.7l0,0l0.2-0.2l2.6-2.9l0.2-0.2c5.4-6.2,10.5-12.7,15.4-19.4
	l0.4-0.5l0.8-1.2l0.7-1c16.3-23.3,28.6-49.1,36.5-76.4l1.5-5.3v-0.4l0.3-1.4l0.4-1.7c3.7-14.5,6.2-29.4,7.3-44.3v-1.8
	c0.1-1.2,0.2-2.4,0.2-3.6s0.1-2.3,0.2-3.4s0.1-1.3,0.1-2s0.1-3.2,0.1-4.8s0-0.4,0-0.6c0.2-10.9-0.4-21.8-1.6-32.7l-0.3-2.5L522,229
	c-0.2-1.6-0.4-3.2-0.6-4.7l0,0c-1.1-7.7-2.6-15.2-4.3-22.6v-0.2l-1.4-5.5l-0.3-1.3l-1.2-4.3l-0.7-2.3l-1-3.2l-1.1-3.4l-0.7-2
	l-1.5-4.4l-0.3-0.9c-12.2-33.9-31.3-65-56-91.2l19.7-19.7C580.6,177.1,578.2,356.2,467.2,467z"/>
</svg>
