<svg id="Layer_1" data-name="Layer 1" xmlns="http://www.w3.org/2000/svg" viewBox="0 0 200 200"><defs><style>.cls-1{fill:#4777bb;}.cls-2{fill:#95cd7c;}.cls-3{fill:#ef7b52;}.cls-4{fill:#44aae0;}</style></defs><title>Artboard 1</title><path class="cls-1" d="M163.66,93.18a71.4,71.4,0,0,1-71.3,71.3,2.83,2.83,0,0,0-2.74,1.87A2.79,2.79,0,0,0,92.26,170h0a77,77,0,0,0,76.94-77,2.79,2.79,0,0,0-3.68-2.63A2.83,2.83,0,0,0,163.66,93.18Z"/><path class="cls-1" d="M85.84,95.24l-7.52-7.52h0l-7-7.16a6.21,6.21,0,0,1,8.79-8.79l7.16,7v0l7.52,7.52,3.93-3.93L84.07,67.78A11.86,11.86,0,0,0,67.3,84.56L81.91,99.17Z"/><path class="cls-1" d="M57.28,131.65l7.52,7.52h0l7,7.16A6.21,6.21,0,1,1,63,155.12l-7.16-7v0l-7.52-7.52-3.93,3.93L59,159.12a11.86,11.86,0,0,0,16.78-16.78L61.21,127.73Z"/><path class="cls-1" d="M98.68,90.25l7.52,7.52h0l7,7.16a6.21,6.21,0,1,1-8.79,8.79l-7.16-7v0l-7.52-7.52-3.93,3.93,14.61,14.61a11.86,11.86,0,0,0,16.78-16.78L102.61,86.32Z"/><path class="cls-2" d="M19.47,115.61a2.78,2.78,0,0,0,0,3.93l21,21,3.93-3.93-21-21A2.78,2.78,0,0,0,19.47,115.61Z"/><path class="cls-1" d="M32.31,102.76a2.78,2.78,0,0,0,0,3.93l21,21,3.93-3.93-21-21A2.78,2.78,0,0,0,32.31,102.76Z"/><path class="cls-3" d="M40.17,94.91a2.78,2.78,0,0,0,0,3.93l21,21,3.93-3.93-21-21A2.78,2.78,0,0,0,40.17,94.91Z"/><path class="cls-1" d="M152.21,82.73a2.78,2.78,0,0,0,0-3.93l-21-21-3.93,3.93,21,21A2.78,2.78,0,0,0,152.21,82.73Z"/><path class="cls-2" d="M165.05,69.88a2.78,2.78,0,0,0,0-3.93l-21-21-3.93,3.93,21,21A2.78,2.78,0,0,0,165.05,69.88Z"/><path class="cls-3" d="M131.51,103.42a2.78,2.78,0,0,0,0-3.93l-21-21-3.93,3.93,21,21A2.78,2.78,0,0,0,131.51,103.42Z"/><path class="cls-1" d="M121.48,30.37l7.16,7v0l7.52,7.52L140.09,41,125.48,26.38A11.86,11.86,0,0,0,108.7,43.15l10.68,10.68h0l3.93,3.93,3.93-3.93h0l4.46-4.46-3.93-3.93-4.46,4.46-3.59-3.59h0l-7-7.16a6.21,6.21,0,1,1,8.79-8.79Z"/><path class="cls-4" d="M83.87,109l2.19,2.19,10.45,10.46a11.86,11.86,0,1,1-16.78,16.77L65.13,123.8l3.93-3.93,7.52,7.52v0l7.16,7a6.21,6.21,0,1,0,8.79-8.79l-7-7.16h0l-3.59-3.59-4.46,4.46-3.93-3.93L79.94,109h0A2.78,2.78,0,0,1,83.87,109Z"/><path class="cls-4" d="M117.42,59.73l-5.3-5.3,0,0-7.31-7.31A11.86,11.86,0,1,0,88,63.85l7.31,7.31,7.31,7.31,2-2,2-2-3.76-3.76L99,67h0l-3.52-3.58L92,59.86a6.21,6.21,0,1,1,8.79-8.79l3.58,3.52,3.58,3.52h0l.25.25h0l2.9,2.9.6.6.23.23h0l1.57,1.57a2.78,2.78,0,0,0,3.93-3.93Z"/><path class="cls-1" d="M170.38,18.07l2.46-2.46a1.51,1.51,0,0,0,.43-1.18c-.24-3.08-3.28-3.83-4.87-2.24L155.55,25l-.17-.17-.56-.52-.86-.78-1-.89-.44-.38q-3.12-2.68-6.5-5.1l-.06-.06-.42-.28q-1.88-1.32-3.83-2.55l-.76-.48-.57-.35q-2.6-1.59-5.31-3l0,0-.23-.11q-1.5-.78-3-1.5l-.07,0L130,8l-.42-.19-1.42-.61-.79-.33-1.07-.43L125.06,6l-.71-.26-1.59-.57L122.42,5a91.66,91.66,0,0,0-13.64-3.55l-.71-.13-.56-.09-1.27-.2-.13,0c-.78-.12-1.56-.23-2.34-.33h-.07l-2-.22-.46,0L99.67.31,98.82.24,97.65.17,96.4.1l-.75,0L94,0H90.38l-1.3,0h-.16l-.46,0-.59,0-.78,0h-.21L86,.23l-.5,0-.4,0-.26,0L83.6.43l-.34,0h0l-.38,0L81.2.69l-.34,0c-1.14.14-2.27.31-3.39.49h0l-.94.16-1.26.21-.15,0L73.45,2l-.57.12-1,.21-1.24.29-.25.06A92.8,92.8,0,0,0,28,26.14l-.06.06q-.69.67-1.36,1.35l-.32.33L25.17,29l-.59.62-.78.85-.85.95-.5.57-.5.59-.34.4-.25.3-.23.28-.31.39-.47.58-.62.78-.3.38-.05.06-.15.2-.79,1-.22.29-.27.37-.59.82-.33.46-.48.68-.35.5-.14.2-.17.25-.71,1.05-.41.64-.4.63-.14.22-.36.57-.19.31a91.62,91.62,0,0,0-4.82,8.91l-.37.8-.34.74c-.2.44-.39.88-.58,1.32l-.06.14A91.62,91.62,0,0,0,1.65,75.05l-.29,1.49c0,.05,0,.11,0,.16q-.16.92-.3,1.84a91.76,91.76,0,0,0-1,9.83l0,.9a.78.78,0,0,0,0,.11q-.14,4.16.11,8.27c0,.17,0,.33,0,.5,0,.48.06,1,.1,1.43s.06.71.09,1.07,0,.56.08.84c.05.52.11,1,.17,1.57l0,.34A91.77,91.77,0,0,0,4.57,121l.25.8.06.15a92.48,92.48,0,0,0,5,11.92l0,.1q.39.77.79,1.53l.19.36.68,1.25.35.63.55,1,.52.88.42.69.7,1.13.27.42.89,1.37.11.17A92.46,92.46,0,0,0,25,155.56L11.26,169.33h0l-1,1-6-6A1.51,1.51,0,0,0,3.06,164c-3.09.23-3.83,3.28-2.24,4.87l3.59,3.59h0l3.85,3.85h0l7.95,8a1.51,1.51,0,0,0,1.18.43c3.08-.24,3.83-3.28,2.24-4.87L16,176.19h0l-1.89-1.89.64-.64h0l1.95-2,1.34-1.34A107.72,107.72,0,0,0,170.38,18.07ZM20.3,141.16q-.45-.68-.9-1.37l-.21-.32-.69-1.11-.38-.61-.5-.84L17.1,136l-.31-.56-.67-1.21L16,134a87.24,87.24,0,0,1-7-17.1A87.25,87.25,0,0,1,5.87,85.63Q5.92,85,6,84.42v0c.05-.54.11-1.07.17-1.61,0-.31.08-.61.12-.92q.13-1,.28-2l.09-.59q.44-2.78,1.07-5.57l0-.15c.29-1.29.62-2.57,1-3.85q.17-.63.36-1.26c.1-.34.2-.68.3-1l.29-.94.2-.63q.29-.88.59-1.75l.28-.8.41-1.13v0l.08-.2a86.78,86.78,0,0,1,3.53-8q1.65-3.28,3.53-6.36l.17-.27c.31-.5.62-1,.94-1.49l.41-.64.47-.7a87.26,87.26,0,0,1,14.52-16.6l.18-.16.7-.61A87.27,87.27,0,0,1,45.17,20l.12-.07.11-.07,1.4-.88.26-.16.41-.24.92-.55.41-.24.78-.44.36-.2.58-.32,1-.55.69-.36,1.15-.59L54,15l.73-.35.85-.41.67-.31,1.11-.5.67-.29.17-.07.92-.39.5-.21.84-.34.65-.26.19-.08,1.43-.53.4-.15L65,10.45h0A87.17,87.17,0,0,1,79.52,7l.53-.08.44-.06,1.23-.16,1.62-.18.92-.09,2-.16.59,0Q89.67,6,92.52,6h.15q3.23,0,6.49.26l.22,0,1.41.13,1,.1,1,.12c1.92.23,3.85.53,5.78.89s3.75.78,5.59,1.25l.69.19,1.67.47,1.23.37.94.29,1.48.48,1.9.67.23.08L124,12l.11,0,.09,0,.6.24,1,.4.37.16,1.57.69h0l1.16.53.89.42,1.4.68q1.9,1,3.73,2l.32.18,1.66,1,.41.25q2.62,1.58,5.09,3.33l.43.31,1,.7.92.69.37.28a87.21,87.21,0,0,1,8,7l.16.16,1.25,1.25.46.48.91,1,.75.82.59.65,1,1.18,0,0,.31.37.89,1.07.5.61.45.57.81,1,.26.34a87.23,87.23,0,0,1,10.56,18.21l.22.52.3.74c.16.39.32.78.47,1.17l0,.09a87.2,87.2,0,0,1,5.3,20.76l.08.66q.07.57.13,1.13.09.83.16,1.66l0,.23q.18,2.19.25,4.41.09,2.88,0,5.73c0,.24,0,.48,0,.71q0,.87-.09,1.73c0,.43-.05.86-.09,1.28s-.06.65-.08,1c0,.51-.09,1-.14,1.55q-.22,2.11-.55,4.19l-.06.37q-.15,1-.32,1.89l-.09.48c-.12.63-.24,1.25-.37,1.87q-.12.55-.24,1.1l-.16.69q-.94,4-2.29,8-.69,2-1.47,4l-.24.59-.36.89q-.35.85-.73,1.71l-.07.15q-.84,1.89-1.77,3.76a87.07,87.07,0,0,1-9.12,14.44l-.59.75-.83,1a86.77,86.77,0,0,1-63.45,31.59h-.27l-1.85,0H91.22l-1.19,0-1,0-1.28-.06-.72,0-1.4-.1-.43,0-1.92-.18-.41,0-1.11-.13-.21,0-1.31-.17h0q-1.39-.2-2.77-.44a87.08,87.08,0,0,1-32.8-13l-.15-.1-1.4-.94-1-.68-.55-.39a87,87,0,0,1-21.22-22ZM165,165a102.16,102.16,0,0,1-142.5,1.92L29.41,160a91.64,91.64,0,0,0,8.31,7l.34.25,1.21.88.76.53.81.56,1.27.85.33.22a91.61,91.61,0,0,0,14.42,7.65l.08,0,.2.08a92.34,92.34,0,0,0,13.18,4.37l.6.15,1,.23,1,.23.73.16,1.75.35.17,0,.85.15.47.08L78,184l.41.07,1.16.18.35.05,1.2.16.32,0,1.21.14.31,0,1.19.12.35,0,1.11.09.46,0,1,.07.37,0h0l.57,0h0l1.69.09.34,0,1.29,0H93q3.66,0,7.27-.29l.54,0h0l1.69-.14.27-.05a92.33,92.33,0,0,0,56.91-28.13l.25-.22.35-.39,1.18-1.3h0l.07-.08.9-1,.07-.08q2.87-3.29,5.43-6.86l.14-.17.29-.43.25-.37a91.68,91.68,0,0,0,12.9-27c.18-.62.35-1.24.52-1.85,0,0,0-.08.05-.13l.12-.5.15-.6a91.59,91.59,0,0,0,2.57-15.66c0-.21,0-.42,0-.63,0-.43.06-.86.08-1.29s0-.8.06-1.21c0-.24,0-.47,0-.71,0-.57,0-1.13,0-1.7,0-.07,0-.14,0-.22a91.77,91.77,0,0,0-.57-11.54q0-.45-.1-.9l-.08-.62q-.11-.83-.23-1.67v0q-.59-4-1.54-8l0-.07q-.23-1-.49-1.94l-.12-.44q-.21-.77-.42-1.53l-.24-.82q-.17-.56-.34-1.12c-.12-.4-.25-.8-.38-1.2l-.24-.72q-.26-.78-.54-1.56l-.12-.32a92.53,92.53,0,0,0-19.79-32.21l7-7A102.16,102.16,0,0,1,165,165Z"/></svg>