<svg xmlns="http://www.w3.org/2000/svg" viewBox="0 0 567.7 566.9"><defs><style>.a{fill:#4777bb;}.b{fill:#95cd7c;}.c{fill:#ef7b52;}.d{fill:#44aae0;}</style></defs><title>Artboard 1</title><path class="a" d="M472.6,254.6a7.9,7.9,0,0,0-7.9,7.9c0,111.6-90.5,202.1-202.1,202.1a7.9,7.9,0,1,0,0,15.7h0c120.3,0,217.8-97.5,217.8-217.9A7.9,7.9,0,0,0,472.6,254.6Z"/><path class="a" d="M244.4,269.6l-21.3-21.3h.1L203.3,228a17.6,17.6,0,0,1,24.9-24.9l20.3,20h0l21.3,21.3,11.1-11.1-41.4-41.4A33.6,33.6,0,0,0,192,239.3l41.4,41.4Z"/><path class="a" d="M163.6,372.7l21.3,21.3h-.1l19.9,20.3a17.6,17.6,0,1,1-24.9,24.9l-20.3-19.9h0l-21.3-21.3L127.2,409l41.4,41.4a33.6,33.6,0,0,0,47.5-47.5l-41.4-41.4Z"/><path class="a" d="M280.8,255.4l21.3,21.3h-.1L322,297a17.6,17.6,0,1,1-24.9,24.9l-20.3-20h0l-21.3-21.3-11.1,11.1,41.4,41.4a33.6,33.6,0,1,0,47.5-47.5l-41.4-41.4Z"/><path class="b" d="M56.5,327.2a7.9,7.9,0,0,0,0,11.1l59.6,59.6,11.1-11.1L67.7,327.2A7.9,7.9,0,0,0,56.5,327.2Z"/><path class="a" d="M92.9,290.9a7.9,7.9,0,0,0,0,11.1l59.6,59.6,11.1-11.1L104,290.9A7.9,7.9,0,0,0,92.9,290.9Z"/><path class="c" d="M115.2,268.6a7.9,7.9,0,0,0,0,11.1l59.6,59.6,11.1-11.1-59.6-59.6A7.9,7.9,0,0,0,115.2,268.6Z"/><path class="a" d="M432.4,234.1a7.9,7.9,0,0,0,0-11.1l-59.6-59.6-11.1,11.1,59.6,59.6A7.9,7.9,0,0,0,432.4,234.1Z"/><path class="b" d="M468.7,197.8a7.9,7.9,0,0,0,0-11.1l-59.6-59.6-11.1,11.1,59.6,59.6A7.9,7.9,0,0,0,468.7,197.8Z"/><path class="c" d="M373.8,292.7a7.9,7.9,0,0,0,0-11.1l-59.6-59.6-11.1,11.1,59.6,59.6A7.9,7.9,0,0,0,373.8,292.7Z"/><path class="a" d="M345.4,85.9l20.3,19.9h0l21.3,21.3L398.1,116,356.7,74.6a33.6,33.6,0,1,0-47.5,47.5l30.2,30.2h0l11.1,11.1,11.1-11.1h0l12.6-12.6-11.1-11.1-12.6,12.6-10.2-10.2h.1l-20-20.3a17.6,17.6,0,1,1,24.9-24.9Z"/><path class="d" d="M238.9,308.5l6.2,6.2,29.6,29.6a33.6,33.6,0,1,1-47.5,47.5l-41.4-41.4L197,339.3l21.3,21.3h0l20.3,19.9a17.6,17.6,0,1,0,24.9-24.9l-20-20.3h.1l-10.2-10.2-12.6,12.6-11.1-11.1,18.2-18.2h0A7.9,7.9,0,0,1,238.9,308.5Z"/><path class="d" d="M333.9,169l-15-15h-.1l-20.7-20.7a33.6,33.6,0,1,0-47.5,47.5l20.7,20.7,20.7,20.7,5.6-5.6,5.6-5.6-10.6-10.6-10.6-10.6h.1l-10-10.1-10-10.1a17.6,17.6,0,1,1,24.9-24.9l10.1,10,10.1,10h0l.7.7h0l8.2,8.2,1.7,1.7.6.6h0l4.4,4.4A7.9,7.9,0,1,0,333.9,169Z"/><path class="a" d="M483.8,52.5l5.5-5.5a7.9,7.9,0,1,0-11.1-11.1L441.8,72.2l-.5-.5-1.6-1.5-2.4-2.2-2.9-2.5-1.3-1.1q-8.8-7.6-18.4-14.4l-.2-.2-1.2-.8q-5.3-3.7-10.9-7.2l-2.2-1.4-1.6-1q-7.4-4.5-15-8.5h-.1l-.7-.3-8.6-4.2h-.2L369.3,24l-1.2-.5-4-1.7-2.2-.9-3-1.2-3.4-1.3-2-.7L349,15.9l-1-.3A259.5,259.5,0,0,0,309.4,5.5l-2-.4-1.6-.3-3.6-.6h-.4l-6.6-.9H295l-5.6-.6h-1.3l-4.5-.4L281.2,2l-3.3-.2-3.5-.2h-27l-2.4.2h-3.3l-3.5.3H236l-4.6.5h-1l-9.6,1.4h-.1l-2.7.4-3.6.6H214l-4.6.9-1.6.3-2.7.6-3.5.8-.7.2A262.7,262.7,0,0,0,80.7,75.3l-.2.2-3.9,3.8-.9.9-3,3.2L71,85.2l-2.2,2.4-2.4,2.7L65,91.9l-1.4,1.7-1,1.1-.7.8-.7.8-.9,1.1-1.3,1.6-1.8,2.2-.8,1.1v.2l-.4.6L53.7,106l-.6.8-.8,1-1.7,2.3-.9,1.3-1.4,1.9-1,1.4-.4.6-.5.7-2,3-1.2,1.8-1.1,1.8-.4.6-1,1.6-.5.9A259.4,259.4,0,0,0,26.5,151l-1,2.3-1,2.1-1.6,3.7-.2.4A259.4,259.4,0,0,0,6.1,213.8L5.3,218c0,.2,0,.3,0,.5q-.4,2.6-.8,5.2a259.8,259.8,0,0,0-2.7,27.8v2.6a2.2,2.2,0,0,0,0,.3q-.4,11.8.3,23.4v1.4c.1,1.3.2,2.7.3,4s.2,2,.3,3l.2,2.4c.1,1.5.3,3,.5,4.4v1A259.8,259.8,0,0,0,14.4,344l.7,2.3.2.4a261.8,261.8,0,0,0,14.2,33.8v.3l2.2,4.3.5,1,1.9,3.5,1,1.8,1.6,2.7,1.5,2.5,1.2,2,2,3.2.8,1.2,2.5,3.9.3.5a261.8,261.8,0,0,0,27.2,34.4l-39,39h0l-3,3L14.9,468.1A7.9,7.9,0,0,0,3.7,479.3l10.2,10.2h0l10.9,10.9h0l21.1,21.1A7.9,7.9,0,1,0,57,510.3L46.8,500.1h0l-5.3-5.3,1.8-1.8h0l5.5-5.5,3.8-3.8A305,305,0,0,0,483.8,52.5ZM58.9,399.7l-2.5-3.9-.6-.9-2-3.1-1.1-1.7-1.4-2.4-1.5-2.6-.9-1.6L47,380.1l-.4-.8a247,247,0,0,1-19.8-48.4,247,247,0,0,1-8.8-88.4l.3-3.4h0c.2-1.5.3-3,.5-4.5l.3-2.6q.4-2.8.8-5.6l.2-1.7q1.3-7.9,3-15.8v-.4c.8-3.6,1.8-7.3,2.8-10.9l1-3.6L28,191l.8-2.7.6-1.8,1.7-5,.8-2.3,1.2-3.2h0l.2-.6a245.7,245.7,0,0,1,10-22.8q4.7-9.3,10-18l.5-.8,2.7-4.2,1.2-1.8,1.3-2a247,247,0,0,1,41.1-47l.5-.4,2-1.7a247.1,247.1,0,0,1,26.8-20.1l.3-.2.3-.2,4-2.5.7-.5,1.1-.7,2.6-1.6,1.2-.7,2.2-1.3,1-.6,1.6-.9,2.9-1.6,1.9-1,3.3-1.7,1.7-.9,2.1-1,2.4-1.2,1.9-.9,3.1-1.4,1.9-.8.5-.2,2.6-1.1,1.4-.6,2.4-1,1.8-.7.5-.2,4.1-1.5,1.1-.4,5.3-1.8h0a246.8,246.8,0,0,1,41.1-9.8l1.5-.2,1.2-.2,3.5-.5,4.6-.5,2.6-.2,5.7-.5h1.7q8-.5,16-.5h.4q9.2,0,18.4.7h.6l4,.4,2.8.3,2.8.3c5.4.7,10.9,1.5,16.4,2.5s10.6,2.2,15.8,3.6l2,.5,4.7,1.3,3.5,1,2.6.8,4.2,1.4,5.4,1.9.6.2,5.1,1.9h.6l1.7.7,2.8,1.1,1.1.4,4.5,1.9h.1l3.3,1.5,2.5,1.2,4,1.9q5.4,2.7,10.5,5.6l.9.5,4.7,2.7,1.2.7q7.4,4.5,14.4,9.4l1.2.9,2.7,2,2.6,1.9,1,.8a246.9,246.9,0,0,1,22.8,19.8l.4.4,3.5,3.6,1.3,1.4,2.6,2.7,2.1,2.3,1.7,1.8,2.9,3.3h0l.9,1,2.5,3,1.4,1.7,1.3,1.6,2.3,2.9.7,1a247,247,0,0,1,29.9,51.5l.6,1.5.9,2.1,1.3,3.3v.2a246.9,246.9,0,0,1,15,58.8l.2,1.9.4,3.2q.2,2.3.5,4.7v.6q.5,6.2.7,12.5.3,8.2,0,16.2c0,.7-.1,1.3-.1,2s-.2,3.3-.3,4.9-.2,2.4-.2,3.6-.2,1.8-.2,2.8-.3,2.9-.4,4.4q-.6,6-1.6,11.8l-.2,1q-.4,2.7-.9,5.4l-.3,1.3c-.3,1.8-.7,3.5-1.1,5.3l-.7,3.1-.4,2q-2.7,11.4-6.5,22.7-2,5.8-4.2,11.4l-.7,1.7-1,2.5-2.1,4.8-.2.4q-2.4,5.3-5,10.6a246.5,246.5,0,0,1-25.8,40.9l-1.7,2.1-2.4,2.9A245.7,245.7,0,0,1,273,508.3H253.4l-3.6-.2h-2l-4-.3h-1.2l-5.4-.5H236l-3.1-.4h-.6l-3.7-.5h-.1l-7.8-1.2A246.5,246.5,0,0,1,127.7,468l-.4-.3-4-2.7-2.7-1.9-1.5-1.1A246.3,246.3,0,0,1,59,399.9ZM467.2,467a289.2,289.2,0,0,1-403.4,5.4l19.6-19.6a259.5,259.5,0,0,0,23.5,19.8l1,.7,3.4,2.5,2.2,1.5,2.3,1.6,3.6,2.4.9.6a259.4,259.4,0,0,0,40.8,21.7h.2l.6.2a261.4,261.4,0,0,0,37.3,12.4l1.7.4,2.7.7,2.9.7,2.1.5,5,1h.5l2.4.4,1.3.2,3.1.5,1.1.2,3.3.5h1l3.4.5h.9l3.4.4h.9l3.4.3h1l3.1.3h1.3l2.8.2h2.7l4.8.3h9.3q10.4,0,20.6-.8h1.6l4.8-.4h.8a261.4,261.4,0,0,0,161.1-79.6l.7-.6,1-1.1,3.3-3.7h0l.2-.2,2.6-2.9.2-.2q8.1-9.3,15.4-19.4l.4-.5.8-1.2.7-1a259.6,259.6,0,0,0,36.5-76.4l1.5-5.3v-.4l.3-1.4.4-1.7a259.3,259.3,0,0,0,7.3-44.3v-1.8c.1-1.2.2-2.4.2-3.6s.1-2.3.2-3.4.1-1.3.1-2,.1-3.2.1-4.8,0-.4,0-.6a259.8,259.8,0,0,0-1.6-32.7l-.3-2.5-.2-1.8q-.3-2.4-.6-4.7h0q-1.7-11.5-4.3-22.6v-.2l-1.4-5.5-.3-1.3-1.2-4.3-.7-2.3-1-3.2-1.1-3.4-.7-2-1.5-4.4-.3-.9a262,262,0,0,0-56-91.2l19.7-19.7A289.2,289.2,0,0,1,467.2,467Z"/></svg>