<?xml version="1.0" encoding="utf-8"?>
<!-- Generator: Adobe Illustrator 22.0.0, SVG Export Plug-In . SVG Version: 6.00 Build 0)  -->
<svg version="1.1" id="Layer_1" xmlns="http://www.w3.org/2000/svg" xmlns:xlink="http://www.w3.org/1999/xlink" x="0px" y="0px"
	 viewBox="0 0 24 24" style="enable-background:new 0 0 24 24;" xml:space="preserve">
<style type="text/css">
	.st0{fill:#E0E0E0;}
	.st1{fill:none;}
</style>
<path class="st0" d="M12,0C5.4,0,0,5.4,0,12s5.4,12,12,12s12-5.4,12-12S18.6,0,12,0z M12,3.6c2,0,3.6,1.6,3.6,3.6S14,10.8,12,10.8
	S8.4,9.2,8.4,7.2S10,3.6,12,3.6z M12,20.6c-3,0-5.7-1.5-7.2-3.9c0-2.4,4.8-3.7,7.2-3.7c2.4,0,7.2,1.3,7.2,3.7
	C17.7,19.1,15,20.6,12,20.6z"/>
<path class="st1" d="M0,0h24v24H0V0z"/>
</svg>
